<svg xmlns="http://www.w3.org/2000/svg" xmlns:xlink="http://www.w3.org/1999/xlink" width="1080" zoomAndPan="magnify" viewBox="0 0 810 809.999993" height="1080" preserveAspectRatio="xMidYMid meet" version="1.0"><defs><g/></defs><path fill="#000000" d="M 720.542969 445.367188 C 720.542969 423.546875 703.957031 405.785156 683.488281 405.785156 L 387.542969 405.785156 C 367.078125 405.785156 350.492188 423.546875 350.492188 445.367188 C 350.492188 467.183594 367.046875 484.945312 387.542969 484.945312 L 683.488281 484.945312 C 703.957031 484.976562 720.542969 467.214844 720.542969 445.367188 Z M 720.542969 445.367188 " fill-opacity="1" fill-rule="nonzero"/><path fill="#000000" d="M 175.996094 558.050781 L 302.824219 686.292969 C 331.4375 715.082031 370.988281 728.988281 414.65625 728.988281 C 458.324219 728.988281 497.875 713.933594 526.546875 685.058594 L 602.652344 607.511719 C 617.648438 592.398438 617.121094 567.371094 601.503906 551.640625 C 585.890625 535.90625 561.070312 535.378906 546.101562 550.492188 L 467.410156 627.15625 C 453.824219 640.890625 435.007812 646.621094 414.214844 646.621094 C 393.425781 646.621094 374.636719 640.890625 360.992188 627.15625 L 234.601562 498.855469 C 220.988281 485.125 214.136719 465.039062 214.136719 444.070312 C 214.136719 423.105469 220.988281 404.167969 234.601562 390.433594 L 360.609375 261.636719 C 374.222656 247.902344 393.425781 242.667969 414.1875 242.667969 C 434.945312 242.667969 453.765625 248.402344 467.382812 262.136719 L 546.074219 338.769531 C 561.070312 353.914062 585.890625 353.382812 601.503906 337.652344 C 617.121094 321.890625 617.648438 296.863281 602.652344 281.75 L 526.546875 204.234375 C 507.464844 185.238281 483.292969 171.417969 456.207031 165.125 L 455.207031 164.917969 L 527.164062 91.3125 C 542.222656 76.199219 541.691406 51.144531 526.078125 35.414062 C 510.460938 19.679688 485.613281 19.179688 470.585938 34.296875 L 175.996094 331.300781 C 147.382812 360.175781 132.414062 400.023438 132.414062 444.070312 C 132.414062 488.121094 147.382812 529.234375 175.996094 558.050781 Z M 175.996094 558.050781 " fill-opacity="1" fill-rule="nonzero"/><path fill="#070706" d="M 312.234375 694.113281 C 307.058594 691.261719 302.472656 687.675781 298.296875 683.5 C 259.273438 644.300781 220.074219 605.277344 181.140625 565.960938 C 122.652344 506.914062 113.449219 420.78125 158.027344 350.707031 C 164.9375 339.855469 173.582031 330.300781 182.699219 321.183594 C 277.035156 226.671875 371.339844 132.128906 465.675781 37.617188 C 484.054688 19.210938 509.726562 18.445312 526.8125 35.648438 C 543.28125 52.203125 542.308594 78.433594 524.519531 96.402344 C 501.90625 119.21875 479.261719 141.980469 456.621094 164.769531 C 455.414062 168.359375 452.503906 170.652344 450.003906 173.210938 C 424.625 198.96875 398.542969 224.054688 373.515625 250.195312 C 370.253906 253.609375 365.8125 255.664062 362.578125 259.164062 C 320.734375 301.011719 278.386719 342.386719 237.132812 384.789062 C 203.753906 419.105469 204.871094 471.183594 239.128906 506.148438 C 277.59375 545.4375 316.734375 584.074219 355.609375 623.007812 C 357.578125 624.980469 359.609375 626.890625 361.609375 628.832031 C 375.371094 637.742188 375.546875 665.589844 366.988281 677.96875 C 357.550781 691.644531 345.226562 700.023438 327.789062 699.378906 C 321.9375 699.203125 317.117188 696.847656 312.234375 694.113281 Z M 312.234375 694.113281 " fill-opacity="1" fill-rule="nonzero"/><g fill="#ffffff" fill-opacity="1"><g transform="translate(298.066394, 794.149972)"><g><path d="M 2.421875 0 L 22.96875 0 L 22.96875 -6.46875 L 9.9375 -6.46875 L 9.9375 -31.328125 L 2.421875 -31.328125 Z M 2.421875 0 "/></g></g></g><g fill="#ffffff" fill-opacity="1"><g transform="translate(321.690181, 794.149972)"><g><path d="M 14.46875 0.875 C 19.3125 0.875 23.546875 -1.1875 25.34375 -4.1875 L 21.515625 -7.125 C 20.203125 -5.328125 17.5625 -4.046875 14.734375 -4.046875 C 11.046875 -4.046875 8.3125 -6.15625 7.921875 -9.421875 L 24.546875 -9.421875 C 24.734375 -10.125 24.859375 -11.09375 24.859375 -11.96875 C 24.8125 -18.75 20.203125 -23.40625 13.15625 -23.40625 C 5.9375 -23.40625 0.96875 -18.53125 1.015625 -11.390625 C 1.015625 -4.140625 6.5625 0.875 14.46875 0.875 Z M 7.875 -13.28125 C 8.265625 -16.453125 10.34375 -18.609375 13.15625 -18.609375 C 15.921875 -18.609375 17.8125 -16.625 18.046875 -13.28125 Z M 7.875 -13.28125 "/></g></g></g><g fill="#ffffff" fill-opacity="1"><g transform="translate(347.865518, 794.149972)"><g><path d="M 14.46875 0.875 C 19.3125 0.875 23.546875 -1.1875 25.34375 -4.1875 L 21.515625 -7.125 C 20.203125 -5.328125 17.5625 -4.046875 14.734375 -4.046875 C 11.046875 -4.046875 8.3125 -6.15625 7.921875 -9.421875 L 24.546875 -9.421875 C 24.734375 -10.125 24.859375 -11.09375 24.859375 -11.96875 C 24.8125 -18.75 20.203125 -23.40625 13.15625 -23.40625 C 5.9375 -23.40625 0.96875 -18.53125 1.015625 -11.390625 C 1.015625 -4.140625 6.5625 0.875 14.46875 0.875 Z M 7.875 -13.28125 C 8.265625 -16.453125 10.34375 -18.609375 13.15625 -18.609375 C 15.921875 -18.609375 17.8125 -16.625 18.046875 -13.28125 Z M 7.875 -13.28125 "/></g></g></g><g fill="#ffffff" fill-opacity="1"><g transform="translate(374.040856, 794.149972)"><g><path d="M 13.203125 0.875 C 16.453125 0.875 19.71875 -0.65625 21.296875 -3.21875 L 19.265625 -7.4375 C 18.21875 -5.5 16.71875 -4.53125 14.703125 -4.53125 C 12.71875 -4.53125 11.171875 -6.03125 11.171875 -8.484375 L 11.171875 -17.421875 L 20.109375 -17.421875 L 20.109375 -22.53125 L 11.171875 -22.53125 L 11.171875 -30.1875 L 4.4375 -28.734375 L 4.4375 -22.53125 L 0.21875 -22.53125 L 0.21875 -17.421875 L 4.4375 -17.421875 L 4.4375 -7.4375 C 4.4375 -2.328125 7.78125 0.875 13.203125 0.875 Z M 13.203125 0.875 "/></g></g></g><g fill="#ffffff" fill-opacity="1"><g transform="translate(395.860973, 794.149972)"><g/></g></g><g fill="#ffffff" fill-opacity="1"><g transform="translate(405.583244, 794.149972)"><g><path d="M 13.15625 0.875 C 19.578125 0.875 24.421875 -3.078125 25.03125 -8.890625 L 18.78125 -9.765625 C 18.4375 -6.6875 16.1875 -4.578125 13.375 -4.578125 C 10.125 -4.578125 7.75 -7.265625 7.703125 -11.265625 C 7.703125 -15.265625 9.90625 -17.953125 12.9375 -17.953125 C 15.21875 -17.953125 17.203125 -16.375 17.6875 -13.421875 L 23.796875 -15 C 22.84375 -20.015625 18.4375 -23.40625 12.765625 -23.40625 C 5.765625 -23.40625 1.015625 -18.484375 1.015625 -11.265625 C 1.015625 -4.046875 5.890625 0.875 13.15625 0.875 Z M 13.15625 0.875 "/></g></g></g><g fill="#ffffff" fill-opacity="1"><g transform="translate(431.362649, 794.149972)"><g><path d="M 13.515625 0.875 C 21.078125 0.875 26.046875 -3.921875 26.046875 -11.265625 C 26.046875 -18.609375 21.078125 -23.40625 13.515625 -23.40625 C 5.984375 -23.40625 1.015625 -18.609375 1.015625 -11.265625 C 1.015625 -3.921875 5.984375 0.875 13.515625 0.875 Z M 13.515625 -4.703125 C 9.90625 -4.703125 7.609375 -7.21875 7.609375 -11.265625 C 7.609375 -15.3125 9.90625 -17.8125 13.515625 -17.8125 C 17.109375 -17.8125 19.40625 -15.3125 19.40625 -11.265625 C 19.40625 -7.21875 17.109375 -4.703125 13.515625 -4.703125 Z M 13.515625 -4.703125 "/></g></g></g><g fill="#ffffff" fill-opacity="1"><g transform="translate(458.37384, 794.149972)"><g><path d="M 11.046875 0.65625 C 14.5625 0.65625 17.34375 -1.0625 18.921875 -4.3125 L 18.96875 -4.3125 L 19.96875 0 L 25.609375 0 L 25.609375 -32.640625 L 18.875 -32.640625 L 18.875 -18.21875 L 18.828125 -18.21875 C 17.25 -21.46875 14.515625 -23.1875 11.046875 -23.1875 C 5.140625 -23.1875 1.015625 -18.4375 1.015625 -11.265625 C 1.015625 -4.140625 5.140625 0.65625 11.046875 0.65625 Z M 13.421875 -5.015625 C 10.125 -5.015625 7.703125 -7.703125 7.703125 -11.265625 C 7.703125 -14.828125 10.125 -17.515625 13.421875 -17.515625 C 16.765625 -17.515625 19.140625 -14.828125 19.140625 -11.265625 C 19.140625 -7.75 16.765625 -5.015625 13.421875 -5.015625 Z M 13.421875 -5.015625 "/></g></g></g><g fill="#ffffff" fill-opacity="1"><g transform="translate(485.73696, 794.149972)"><g><path d="M 14.46875 0.875 C 19.3125 0.875 23.546875 -1.1875 25.34375 -4.1875 L 21.515625 -7.125 C 20.203125 -5.328125 17.5625 -4.046875 14.734375 -4.046875 C 11.046875 -4.046875 8.3125 -6.15625 7.921875 -9.421875 L 24.546875 -9.421875 C 24.734375 -10.125 24.859375 -11.09375 24.859375 -11.96875 C 24.8125 -18.75 20.203125 -23.40625 13.15625 -23.40625 C 5.9375 -23.40625 0.96875 -18.53125 1.015625 -11.390625 C 1.015625 -4.140625 6.5625 0.875 14.46875 0.875 Z M 7.875 -13.28125 C 8.265625 -16.453125 10.34375 -18.609375 13.15625 -18.609375 C 15.921875 -18.609375 17.8125 -16.625 18.046875 -13.28125 Z M 7.875 -13.28125 "/></g></g></g></svg>